<svg width="22" height="22" viewBox="0 0 22 22" fill="none" xmlns="http://www.w3.org/2000/svg">
<path fill-rule="evenodd" clip-rule="evenodd" d="M10.7556 1.92064H11.2444C11.6135 1.92064 11.9605 1.92069 12.2875 1.92138L14.2156 5.45636H9.98674L8.06645 1.93582C8.81387 1.9211 9.69322 1.92064 10.7556 1.92064ZM5.94808 2.06305C5.28108 2.15016 4.86493 2.27961 4.54235 2.44398C3.63887 2.90432 2.90432 3.63887 2.44398 4.54235C2.32432 4.7772 2.22316 5.06164 2.14337 5.45636H7.79897L5.94808 2.06305ZM16.4034 5.45636H19.8566C19.7768 5.06164 19.6757 4.7772 19.556 4.54235C19.0957 3.63887 18.3611 2.90432 17.4577 2.44398C17.0546 2.23859 16.5054 2.08772 15.5032 2.00584C15.1952 1.98068 14.8606 1.96295 14.4911 1.95045L16.4034 5.45636ZM1.95519 7.37699C1.92144 8.26097 1.92064 9.34754 1.92064 10.7556V11.2444C1.92064 13.1585 1.92213 14.4786 2.00584 15.5032C2.08772 16.5054 2.23859 17.0546 2.44398 17.4577C2.90432 18.3611 3.63887 19.0957 4.54235 19.556C4.94545 19.7614 5.49464 19.9123 6.49681 19.9942C7.52141 20.0779 8.84147 20.0794 10.7556 20.0794H11.2444C13.1585 20.0794 14.4786 20.0779 15.5032 19.9942C16.5054 19.9123 17.0546 19.7614 17.4577 19.556C18.3611 19.0957 19.0957 18.3611 19.556 17.4577C19.7614 17.0546 19.9123 16.5054 19.9942 15.5032C20.0779 14.4786 20.0794 13.1585 20.0794 11.2444V10.7556C20.0794 9.34754 20.0786 8.26097 20.0448 7.37699H1.95519ZM0 10.7556C0 6.99076 0 5.10836 0.732678 3.6704C1.37716 2.40553 2.40553 1.37716 3.6704 0.732678C5.10836 0 6.99076 0 10.7556 0H11.2444C15.0092 0 16.8916 0 18.3296 0.732678C19.5945 1.37716 20.6228 2.40553 21.2673 3.6704C22 5.10836 22 6.99076 22 10.7556V11.2444C22 15.0092 22 16.8916 21.2673 18.3296C20.6228 19.5945 19.5945 20.6228 18.3296 21.2673C16.8916 22 15.0092 22 11.2444 22H10.7556C6.99076 22 5.10836 22 3.6704 21.2673C2.40553 20.6228 1.37716 19.5945 0.732678 18.3296C0 16.8916 0 15.0092 0 11.2444V10.7556ZM7.93546 10.2423C7.93546 9.54887 8.67569 9.10653 9.28639 9.43505L14.3702 12.1698C15.0134 12.5158 15.0134 13.4384 14.3702 13.7844L9.28639 16.5192C8.67569 16.8477 7.93546 16.4054 7.93546 15.7119V10.2423Z" fill="black"/>
</svg>
