<svg width="24" height="24" viewBox="0 0 24 24" fill="none" xmlns="http://www.w3.org/2000/svg">
<path fill-rule="evenodd" clip-rule="evenodd" d="M11.96 0.76593L12 0.76593L12.04 0.76593C13.7529 0.765925 15.0932 0.765921 16.1714 0.849877C17.2682 0.935275 18.1721 1.11171 18.9942 1.50761C20.5228 2.24376 21.7562 3.47714 22.4924 5.00578C22.8883 5.82787 23.0647 6.73176 23.1501 7.82855C23.2341 8.90681 23.2341 10.2471 23.234 11.9601V12V12.0399C23.2341 13.7529 23.2341 15.0931 23.1501 16.1714C23.0647 17.2682 22.8883 18.1721 22.4924 18.9942C21.7562 20.5228 20.5228 21.7562 18.9942 22.4923C18.1721 22.8882 17.2682 23.0647 16.1714 23.1501C15.0932 23.234 13.7529 23.234 12.0399 23.234H12H11.9601C10.2471 23.234 8.90684 23.234 7.82858 23.1501C6.73179 23.0647 5.8279 22.8882 5.00581 22.4923C3.47717 21.7562 2.24379 20.5228 1.50764 18.9942C1.11174 18.1721 0.935306 17.2682 0.849907 16.1714C0.765952 15.0932 0.765956 13.7529 0.765961 12.0399L0.765961 12L0.765961 11.96C0.765956 10.247 0.765952 8.9068 0.849907 7.82855C0.935306 6.73176 1.11174 5.82787 1.50764 5.00578C2.24379 3.47714 3.47717 2.24376 5.00581 1.50761C5.8279 1.11171 6.73179 0.935275 7.82858 0.849877C8.90683 0.765921 10.2471 0.765925 11.96 0.76593ZM7.97392 2.71657C6.98701 2.79341 6.3437 2.94146 5.81819 3.19453C4.67171 3.74665 3.74668 4.67168 3.19456 5.81816C2.94149 6.34366 2.79344 6.98698 2.7166 7.97389C2.63896 8.97097 2.6383 10.2385 2.6383 12C2.6383 13.7615 2.63896 15.029 2.7166 16.0261C2.79344 17.013 2.94149 17.6563 3.19456 18.1818C3.74668 19.3283 4.67171 20.2533 5.81819 20.8054C6.3437 21.0585 6.98701 21.2065 7.97392 21.2834C8.971 21.361 10.2385 21.3617 12 21.3617C13.7615 21.3617 15.029 21.361 16.0261 21.2834C17.013 21.2065 17.6563 21.0585 18.1818 20.8054C19.3283 20.2533 20.2533 19.3283 20.8054 18.1818C21.0585 17.6563 21.2066 17.013 21.2834 16.0261C21.361 15.029 21.3617 13.7615 21.3617 12C21.3617 10.2385 21.361 8.97097 21.2834 7.97389C21.2066 6.98698 21.0585 6.34366 20.8054 5.81816C20.2533 4.67168 19.3283 3.74665 18.1818 3.19453C17.6563 2.94146 17.013 2.79341 16.0261 2.71657C15.029 2.63893 13.7615 2.63827 12 2.63827C10.2385 2.63827 8.971 2.63893 7.97392 2.71657ZM12 6.38295C12.517 6.38295 12.9362 6.80209 12.9362 7.31912V11.0638H16.6809C17.1979 11.0638 17.617 11.4829 17.617 12C17.617 12.517 17.1979 12.9361 16.6809 12.9361H12.9362V16.6808C12.9362 17.1979 12.517 17.617 12 17.617C11.483 17.617 11.0638 17.1979 11.0638 16.6808V12.9361H7.31915C6.80212 12.9361 6.38298 12.517 6.38298 12C6.38298 11.4829 6.80212 11.0638 7.31915 11.0638H11.0638V7.31912C11.0638 6.80209 11.483 6.38295 12 6.38295Z" fill="black"/>
</svg>
