<svg width="23" height="24" viewBox="0 0 23 24" fill="none" xmlns="http://www.w3.org/2000/svg">
<path fill-rule="evenodd" clip-rule="evenodd" d="M10.3876 0.723343C5.04791 0.723343 0.722122 5.05889 0.722122 10.4035C0.722122 15.7481 5.04791 20.0836 10.3876 20.0836C12.4499 20.0836 14.361 19.4369 15.93 18.3351L15.9383 18.3435L20.2711 22.6835L20.9776 23.3912L22.393 21.9782L21.6865 21.2705L17.443 17.0199C19.062 15.2888 20.0531 12.9617 20.0531 10.4035C20.0531 5.05889 15.7273 0.723343 10.3876 0.723343ZM2.72212 10.4035C2.72212 6.16027 6.15567 2.72334 10.3876 2.72334C14.6195 2.72334 18.0531 6.16027 18.0531 10.4035C18.0531 14.6467 14.6195 18.0836 10.3876 18.0836C6.15567 18.0836 2.72212 14.6467 2.72212 10.4035Z" fill="black"/>
</svg>
