<svg width="23" height="23" viewBox="0 0 23 23" fill="none" xmlns="http://www.w3.org/2000/svg">
<path d="M17.1176 20.3725L17.4338 19.4238C17.1486 19.3287 16.8357 19.367 16.5818 19.5281L17.1176 20.3725ZM20.3725 17.1175L19.5281 16.5818C19.3671 16.8357 19.3288 17.1485 19.4238 17.4338L20.3725 17.1175ZM22 22L21.6838 22.9487C22.0431 23.0684 22.4393 22.9749 22.7071 22.7071C22.9749 22.4392 23.0685 22.0431 22.9487 21.6837L22 22ZM11.5 23C13.7615 23 15.8734 22.3462 17.6533 21.2169L16.5818 19.5281C15.1128 20.4601 13.371 21 11.5 21V23ZM0 11.5C0 17.8513 5.14873 23 11.5 23V21C6.25329 21 2 16.7467 2 11.5H0ZM11.5 0C5.14873 0 0 5.14873 0 11.5H2C2 6.25329 6.25329 2 11.5 2V0ZM23 11.5C23 5.14873 17.8513 0 11.5 0V2C16.7467 2 21 6.25329 21 11.5H23ZM21.2169 17.6533C22.3462 15.8733 23 13.7615 23 11.5H21C21 13.371 20.4602 15.1128 19.5281 16.5818L21.2169 17.6533ZM19.4238 17.4338L21.0513 22.3162L22.9487 21.6837L21.3212 16.8013L19.4238 17.4338ZM22.3162 21.0513L17.4338 19.4238L16.8013 21.3212L21.6838 22.9487L22.3162 21.0513Z" fill="black"/>
</svg>
